<?xml version="1.0" encoding="UTF-8" standalone="no"?>
<svg version="1.1" height="91" width="89" xmlns="http://www.w3.org/2000/svg">
  <g>
    <path style="fill:#00519e;fill-rule:evenodd"
       d="m 44.9131,0.1889 c 6.6766,0 12.0786,5.3687 12.0786,12.0792 0,6.6772 -5.402,12.0497 -12.0786,12.0497 -6.6106,0 -12.0787,-5.3725 -12.0787,-12.0497 0,-6.7105 5.4681,-12.0792 12.0787,-12.0792 z" />
    <path style="fill:#e30016;fill-rule:evenodd"
       d="m 44.4669,89.7794 36.1016,-33.5508 c 15.7687,-14.6633 4.128,-33.9265 -12.7498,-33.9265 -6.61,0 -13.7907,3.6611 -19.0245,7.7547 l 0,17.5478 12.4828,-9.5611 c 7.8174,-6.006 19.3915,3.0527 8.3875,12.515 l -25.1976,21.9095 0,17.3114 z" />
    <path style="fill:#e30016;fill-rule:evenodd"
       d="m 44.4642,89.7794 -36.1017,-33.5508 c -15.7697,-14.6633 -4.1268,-33.9265 12.7488,-33.9265 6.6111,0 13.7912,3.6611 19.0239,7.7547 l 0,17.5478 -12.4806,-9.5611 c -7.8179,-6.006 -19.3931,3.0527 -8.387,12.515 l 25.1966,21.9095 0.7066,0.1917 -0.7066,17.1197 z" />
  </g>
</svg>