<?xml version="1.0" encoding="UTF-8" standalone="no"?>
<svg
   xmlns:dc="http://purl.org/dc/elements/1.1/"
   xmlns:cc="http://creativecommons.org/ns#"
   xmlns:rdf="http://www.w3.org/1999/02/22-rdf-syntax-ns#"
   xmlns:svg="http://www.w3.org/2000/svg"
   xmlns="http://www.w3.org/2000/svg"
   viewBox="0 0 841.88977 595.27557"
   id="svg2"
   height="595.27557"
   width="841.88977"
   version="1.1">
  <metadata
     id="metadata78">
    <rdf:RDF>
      <cc:Work
         rdf:about="">
        <dc:format>image/svg+xml</dc:format>
        <dc:type
           rdf:resource="http://purl.org/dc/dcmitype/StillImage" />
      </cc:Work>
    </rdf:RDF>
  </metadata>
  <defs
     id="defs76" />
  <g
     id="g4">
    <path
       id="path6"
       style="fill:#00519e;fill-rule:evenodd"
       d="m 420.9131,147.1889 c 6.6766,0 12.0786,5.3687 12.0786,12.0792 0,6.6772 -5.402,12.0497 -12.0786,12.0497 -6.6106,0 -12.0787,-5.3725 -12.0787,-12.0497 0,-6.7105 5.4681,-12.0792 12.0787,-12.0792 z" />
    <path
       id="path8"
       style="fill:#e30016;fill-rule:evenodd"
       d="m 420.4669,236.7794 36.1016,-33.5508 c 15.7687,-14.6633 4.128,-33.9265 -12.7498,-33.9265 -6.61,0 -13.7907,3.6611 -19.0245,7.7547 l 0,17.5478 12.4828,-9.5611 c 7.8174,-6.006 19.3915,3.0527 8.3875,12.515 l -25.1976,21.9095 0,17.3114 z" />
    <path
       id="path10"
       style="fill:#e30016;fill-rule:evenodd"
       d="m 420.4642,236.7794 -36.1017,-33.5508 c -15.7697,-14.6633 -4.1268,-33.9265 12.7488,-33.9265 6.6111,0 13.7912,3.6611 19.0239,7.7547 l 0,17.5478 -12.4806,-9.5611 c -7.8179,-6.006 -19.3931,3.0527 -8.387,12.515 l 25.1966,21.9095 0.7066,0.1917 -0.7066,17.1197 z" />
  </g>
  <path
     id="path12"
     style="fill:#00519e;fill-rule:evenodd"
     d="m 131.4627,280.8252 c -0.1081,-3.1892 -1.558,-4.6757 -4.5293,-4.6757 l -4.3847,0 c -1.5219,0 -1.7748,0.0726 -1.7748,1.1604 l 0,8.9861 4.5283,0 c 3.1171,0 4.3131,-0.7967 4.3131,-3.4055 0,-0.1097 0,-0.1813 0,-0.2539 l 1.232,0 c -0.1447,1.522 -0.1824,3.0434 -0.1824,4.5294 0,1.4133 0.0377,2.7911 0.1458,4.1318 l -1.1954,0 c 0,-3.0445 -1.0873,-3.3351 -4.2754,-3.3351 l -4.566,0 0,8.1173 c 0,2.5727 0.5068,3.0073 3.5142,3.0439 l 0,1.2681 c -1.812,-0.1447 -3.6971,-0.2174 -5.5801,-0.2174 -1.4499,0 -3.2247,0.0727 -5.3998,0.2174 l 0,-1.2681 c 0.0726,0 0.1081,0 0.1807,0 2.5738,0 3.2624,-0.7607 3.2624,-3.1166 l 0,-17.7193 c 0,-2.0293 -0.6531,-2.7179 -2.8632,-2.7179 -0.0726,0 -0.1087,0 -0.1807,0 l 0,-1.1594 c 1.4854,0.1447 3.0439,0.1802 4.674,0.1802 l 8.1528,0 c 1.4138,0 3.4066,-0.1081 6.0158,-0.2163 l 0.3621,6.4506 -1.4494,0 z" />
  <path
     id="path14"
     style="fill:#00519e;fill-rule:evenodd"
     d="m 152.9469,281.5493 -0.1507,11.988 c -0.0612,4.7713 -2.8987,7.2178 -8.4548,7.2178 -5.3758,0 -7.943,-2.2051 -7.943,-6.8246 l 0,-11.959 c 0,-1.6902 -0.5439,-2.2642 -2.3859,-2.2642 -0.059,0 -0.0901,0 -0.1502,0 l 0,-0.966 c 1.8731,0.1207 3.2613,0.2108 4.1673,0.2108 0.936,0 2.3253,-0.0901 4.1673,-0.2108 l 0,0.966 c -1.812,0.0912 -2.5061,0.574 -2.5061,2.0233 l 0,10.8407 c 0,4.3185 1.6001,6.1895 5.7974,6.1895 4.1974,0 5.7985,-1.8415 5.7985,-6.0077 0,-0.0306 0,-0.0917 0,-0.1218 l -0.0611,-10.7489 c 0,-1.6923 -0.604,-2.0839 -2.8081,-2.1751 l 0,-0.966 c 1.2681,0.1507 2.4149,0.2108 3.5022,0.2108 1.1484,0 2.2952,-0.0601 3.3525,-0.2108 l 0,0.966 c -1.7213,0.2119 -2.2953,0.574 -2.3253,1.842 z" />
  <path
     id="path16"
     style="fill:#00519e;fill-rule:evenodd"
     d="m 175.9268,281.7306 0,19.0245 -0.8148,0 -15.2793,-18.7536 0,14.7971 c 0,2.0233 0.3915,2.5372 2.5961,2.5372 0.0907,0 0.1508,0 0.2119,0 l 0,1.0562 c -1.238,-0.0901 -2.4165,-0.1808 -3.5038,-0.1808 -0.3014,0 -1.4488,0.0907 -3.4109,0.1808 l 0,-1.0562 c 1.9922,0 2.5361,-0.664 2.5361,-2.5972 l 0,-16.2766 c -0.4238,-0.4827 -1.2391,-0.7246 -2.3859,-0.7547 l 0,-0.9961 c 1.0572,0.1202 2.1139,0.1808 3.2012,0.1808 0.7853,0 1.569,-0.03 2.3548,-0.0912 l 12.9546,15.8238 0,-12.6531 c 0,-1.7203 -0.5133,-2.2642 -2.4454,-2.2642 -0.1213,0 -0.2119,0 -0.3321,0 l 0,-0.966 c 1.8114,0.1207 3.0484,0.2108 3.6234,0.2108 0.906,0 1.9332,-0.0901 3.1101,-0.2108 l 0,0.966 c -1.6908,0.0912 -2.416,0.633 -2.416,2.0233 z" />
  <path
     id="path18"
     style="fill:#00519e;fill-rule:evenodd"
     d="m 197.6381,289.5819 c 0,6.3108 -3.1089,9.4519 -9.3006,9.4519 -2.1729,0 -2.8982,-0.1818 -2.8982,-1.3592 l 0,-16.4273 c 0,-1.1768 0.5729,-1.3281 2.5066,-1.3281 2.9594,0 5.1023,0.3921 6.7946,1.8715 1.871,1.6312 2.8976,4.288 2.8976,7.7912 z m 3.6846,-0.362 c 0,-6.8853 -3.8653,-10.6299 -11.2027,-10.6299 -2.446,0 -4.7107,0.272 -6.8547,0.272 -0.877,0 -2.0533,-0.0612 -3.5633,-0.1508 l 0,0.9961 c 0.0901,0 0.1502,0 0.2419,0 1.6307,0 2.1435,0.3321 2.1435,1.6902 l 0,16.0062 c 0,1.569 -0.3621,1.9321 -2.3554,1.9321 -0.1512,0 -0.332,0 -0.5439,0 l 0,1.0562 c 1.8731,-0.0901 3.4721,-0.1502 4.8314,-0.1502 1.54,0 3.3825,0.2113 5.5571,0.2113 7.398,0 11.7461,-4.3486 11.7461,-11.2332 z" />
  <path
     id="path20"
     style="fill:#00519e;fill-rule:evenodd"
     d="m 214.1817,290.7593 -6.6433,0 3.3831,-8.304 3.2602,8.304 z m 8.6371,9.6327 0,-1.0562 c -1.4504,-0.0611 -1.7513,-0.5139 -2.1745,-1.5711 l -7.9414,-19.5368 -1.3292,0 -8.0321,18.7826 c -0.6946,1.6613 -1.238,2.3253 -2.9293,2.3253 -0.0606,0 -0.1207,0 -0.2119,0 l 0,1.0562 c 1.1485,-0.1213 2.2953,-0.1808 3.4427,-0.1808 1.0572,0 2.2341,0.0595 3.5933,0.1808 l 0,-1.0562 c -1.8415,0 -2.5967,-0.0912 -2.5967,-0.9961 0,-0.273 0.0912,-0.5439 0.2113,-0.847 l 2.144,-5.4047 7.67,0 2.0839,5.4965 c 0.0901,0.2714 0.1513,0.5133 0.1513,0.6941 0,0.7552 -0.6952,1.0873 -2.0834,1.0873 -0.1807,0 -0.3631,-0.0301 -0.5739,-0.0301 l 0,1.0562 c 1.8119,-0.1213 3.2313,-0.1808 4.2874,-0.1808 0.604,0 2.0233,0.0595 4.2885,0.1808 z" />
  <path
     id="path22"
     style="fill:#00519e;fill-rule:evenodd"
     d="m 233.0724,300.6951 c -6.1906,0 -10.0859,-4.0772 -10.0859,-10.7211 0,-7.2779 4.0461,-11.5648 10.993,-11.5648 2.0222,0 4.5283,0.4528 7.4275,1.4488 l 0.1507,5.7068 -1.5099,0 -0.4222,-2.2942 c -0.3932,-2.174 -2.4159,-3.4126 -5.5871,-3.4126 -4.6506,0 -7.4286,3.3515 -7.4286,9.15 0,6.1605 3.2919,9.9647 7.8218,9.9647 2.808,0 5.0722,-1.4488 6.4314,-4.1373 l 1.149,0.6051 c -1.6312,3.5933 -4.5305,5.2546 -8.9397,5.2546 z" />
  <path
     id="path24"
     style="fill:#00519e;fill-rule:evenodd"
     d="m 249.0765,281.7306 0,16.7893 c 0,4.6501 -2.1741,7.4281 -7.0966,8.9386 l -0.331,-1.1473 c 3.1702,-0.9666 4.0456,-2.6868 4.0456,-6.13 l 0,-18.2097 c 0,-1.842 -0.6346,-2.2341 -3.0194,-2.2642 l 0,-0.966 c 1.8425,0.1207 3.3213,0.2108 4.4086,0.2108 1.2987,0 2.7781,-0.0901 4.4999,-0.2108 l 0,0.966 c -1.813,0.0912 -2.5071,0.574 -2.5071,2.0233 z" />
  <path
     id="path26"
     style="fill:#00519e;fill-rule:evenodd"
     d="m 263.8632,290.7566 -6.6433,0 3.3815,-8.3035 3.2618,8.3035 z m 8.6361,9.6337 0,-1.0572 c -1.4494,-0.0606 -1.7503,-0.5128 -2.1746,-1.57 l -7.9414,-19.5373 -1.3281,0 -8.0326,18.7825 c -0.6941,1.6613 -1.238,2.3248 -2.9304,2.3248 -0.059,0 -0.119,0 -0.2102,0 l 0,1.0572 c 1.1473,-0.1217 2.2941,-0.1807 3.4426,-0.1807 1.0561,0 2.2341,0.059 3.5933,0.1807 l 0,-1.0572 c -1.8425,0 -2.5972,-0.0907 -2.5972,-0.9966 0,-0.2715 0.0912,-0.5434 0.2108,-0.8454 l 2.1445,-5.4053 7.6694,0 2.084,5.4965 c 0.0912,0.272 0.1512,0.5128 0.1512,0.6941 0,0.7547 -0.6952,1.0873 -2.0833,1.0873 -0.1808,0 -0.3627,-0.0306 -0.574,-0.0306 l 0,1.0572 c 1.812,-0.1217 3.2324,-0.1807 4.2874,-0.1807 0.6051,0 2.0244,0.059 4.2886,0.1807 z" />
  <path
     id="path28"
     style="fill:#00519e;fill-rule:evenodd"
     d="m 298.2162,281.1845 c 0,3.95 -2.0648,5.8706 -6.3413,5.8706 l -3.0439,0 0,-9.7473 c 0,-1.2681 0.3986,-1.6312 3.116,-1.6312 4.0215,0 6.2692,2.0669 6.2692,5.5079 z m 7.1021,19.2058 0,-1.3046 c -0.1453,0 -0.2534,0 -0.3981,0 -1.5946,0 -2.2106,-0.8705 -3.08,-2.6098 -2.138,-4.3109 -3.2253,-7.6815 -6.704,-8.7682 4.4568,-0.8699 6.8492,-3.406 6.8492,-7.0671 0,-4.0215 -2.8992,-6.3047 -8.4804,-6.3047 -1.268,0 -4.1673,0.2173 -8.6955,0.2173 -0.7263,0 -1.7394,-0.0355 -3.0451,-0.1447 l 0,1.1599 c 0.0721,0 0.1081,0 0.1813,0 2.2095,0 2.8638,0.6887 2.8638,2.7169 l 0,17.7193 c 0,2.3198 -0.6166,3.1177 -3.0085,3.1177 l 0,1.268 c 2.5727,-0.1452 4.4567,-0.2173 5.6166,-0.2173 1.3041,0 2.7546,0.0721 4.3836,0.2173 l 0,-1.268 c -2.499,-0.0366 -2.9702,-0.652 -2.9702,-3.0445 l 0,-7.5007 2.5,0 c 0.1092,0 0.2174,0 0.29,0 0.7967,0 1.4859,0.0366 2.1019,0.5439 1.0879,0.9049 1.812,2.9348 3.0445,5.7985 0.9404,2.2101 1.6301,3.9117 2.6819,4.8914 0.6139,0.5794 1.4843,0.5794 2.6808,0.5794 l 3.1882,0 z" />
  <path
     id="path30"
     style="fill:#00519e;fill-rule:evenodd"
     d="m 323.6804,289.4585 c 0,6.2812 -2.8381,9.8746 -7.3686,9.8746 -4.4392,0 -7.1566,-3.5628 -7.1566,-9.8746 0,-6.1595 2.8981,-9.8446 7.2167,-9.8446 4.6812,0 7.3085,3.4132 7.3085,9.8446 z m 3.714,0 c 0,-6.7345 -4.348,-11.1126 -11.0826,-11.1126 -6.6127,0 -10.8706,4.3781 -10.8706,11.1126 0,6.9453 4.2868,11.295 11.0514,11.295 6.6439,0 10.9018,-4.3497 10.9018,-11.295 z" />
  <path
     id="path32"
     style="fill:#00519e;fill-rule:evenodd"
     d="m 348.4422,299.2424 c 0,0.4233 0,0.8159 0,1.208 -3.5644,-0.1513 -6.5532,-0.2408 -8.9697,-0.2408 -3.3519,0 -6.7634,0.03 -10.2366,0.1207 l 0,-0.7558 14.5251,-19.2949 -7.9714,0.1202 c -2.9604,0.03 -3.9865,0.6952 -4.5304,3.7746 l -1.2987,0 c 0.1813,-1.7814 0.3026,-3.6234 0.3026,-5.4959 1.842,0.1501 3.986,0.2113 6.4014,0.2113 l 6.7946,0 c 1.6612,0 3.3219,0 4.9831,-0.1201 l 0,0.6941 -14.5557,19.3565 9.1805,-0.1507 c 2.8075,-0.0612 3.9242,-0.9065 4.3786,-3.8358 l 1.1168,0 c -0.0901,1.6 -0.1202,3.0805 -0.1202,4.4086 z" />
  <path
     id="path34"
     style="fill:#00519e;fill-rule:evenodd"
     d="m 376.2224,281.7279 -6.6433,19.0256 -1.5401,0 -3.6233,-12.835 -5.3147,12.835 -1.6607,0 -6.2506,-19.2364 c -0.4222,-1.2992 -0.4839,-1.8114 -2.2953,-1.8114 l 0,-0.9966 c 1.1468,0.1507 2.3553,0.2408 3.6545,0.2408 1.0562,0 2.3848,-0.0901 4.0461,-0.2408 l 0,0.9966 c -1.48,0.0901 -2.1451,0.2408 -2.1451,0.8153 0,0.1196 0.03,0.2408 0.0611,0.361 l 4.7413,15.8233 4.4982,-11.1121 -1.1468,-3.9849 c -0.4232,-1.5105 -1.1173,-1.9026 -2.9293,-1.9026 l 0,-0.9966 c 1.8731,0.0895 3.322,0.1807 4.3481,0.1807 1.0873,0 2.5066,-0.0612 4.2885,-0.1807 l 0,0.9966 c -1.7213,0.03 -2.5066,0.1502 -2.5066,0.9049 0,0.1212 0.03,0.2714 0.0606,0.4232 l 3.8959,15.2804 4.8019,-14.6163 c 0.1507,-0.4227 0.1807,-0.7242 0.1807,-0.9049 0,-0.9066 -0.7552,-1.0873 -2.3859,-1.0873 -0.1201,0 -0.2414,0 -0.3921,0 l 0,-0.9966 c 1.4789,0.0895 2.6568,0.1807 3.5622,0.1807 0.7859,0 1.6918,-0.03 2.748,-0.1201 l 0,1.0261 c -1.2069,0.0289 -1.6001,0.664 -2.0533,1.9321 z" />
  <path
     id="path36"
     style="fill:#00519e;fill-rule:evenodd"
     d="m 396.7874,289.4585 c 0,6.2812 -2.8397,9.8746 -7.3685,9.8746 -4.4387,0 -7.1567,-3.5628 -7.1567,-9.8746 0,-6.1595 2.8982,-9.8446 7.2168,-9.8446 4.6811,0 7.3084,3.4132 7.3084,9.8446 z m 3.7141,0 c 0,-6.7345 -4.3492,-11.1126 -11.0826,-11.1126 -6.6127,0 -10.8712,4.3781 -10.8712,11.1126 0,6.9453 4.2874,11.295 11.052,11.295 6.6444,0 10.9018,-4.3497 10.9018,-11.295 z" />
  <path
     id="path38"
     style="fill:#00519e;fill-rule:evenodd"
     d="m 408.1709,281.7279 0,16.7904 c 0,4.6495 -2.174,7.4275 -7.0955,8.9386 l -0.3331,-1.1479 c 3.1707,-0.9661 4.0466,-2.6874 4.0466,-6.1295 l 0,-18.2097 c 0,-1.842 -0.634,-2.2341 -3.0194,-2.2641 l 0,-0.9666 c 1.8415,0.1207 3.3214,0.2108 4.4087,0.2108 1.2981,0 2.778,-0.0901 4.4993,-0.2108 l 0,0.9666 c -1.812,0.0901 -2.5066,0.5739 -2.5066,2.0222 z" />
  <path
     id="path40"
     style="fill:#00519e;fill-rule:evenodd"
     d="m 431.1213,281.5477 -0.1512,11.9869 c -0.0601,4.7718 -2.8993,7.2189 -8.4548,7.2189 -5.3752,0 -7.9425,-2.2052 -7.9425,-6.8257 l 0,-11.958 c 0,-1.6902 -0.5433,-2.2641 -2.3853,-2.2641 -0.0601,0 -0.0912,0 -0.1518,0 l 0,-0.9666 c 1.872,0.1207 3.2624,0.2108 4.1673,0.2108 0.9371,0 2.3252,-0.0901 4.1672,-0.2108 l 0,0.9666 c -1.8114,0.0901 -2.506,0.5739 -2.506,2.0222 l 0,10.8417 c 0,4.3186 1.6012,6.1895 5.7985,6.1895 4.1962,0 5.7974,-1.842 5.7974,-6.0082 0,-0.03 0,-0.0912 0,-0.1212 l -0.0612,-10.7505 c 0,-1.6913 -0.6029,-2.0834 -2.8075,-2.1735 l 0,-0.9666 c 1.2675,0.1507 2.4165,0.2108 3.5027,0.2108 1.1479,0 2.2953,-0.0601 3.3525,-0.2108 l 0,0.9666 c -1.7224,0.2108 -2.2952,0.5739 -2.3253,1.842 z" />
  <path
     id="path42"
     style="fill:#00519e;fill-rule:evenodd"
     d="m 463.2583,300.173 c -1.5946,0 -3.4421,0.0721 -5.5091,0.2173 l 0,-1.268 1.3057,-0.1092 c 0.6887,-0.0716 1.0879,-0.1092 1.0879,-0.5428 0,-0.3272 -0.3266,-0.6526 -0.6898,-1.0873 l -7.718,-9.8566 c -0.2534,-0.3255 -0.5439,-0.3981 -0.9054,-0.5434 l -0.5079,-0.1818 0,-0.3621 1.0141,-0.0726 8.0091,-8.914 c 0.3987,-0.4713 0.6149,-0.9426 0.6149,-1.1228 0,-0.5439 -0.8322,-0.7613 -2.4989,-0.7613 l 0,-1.1599 c 2.5716,0.1092 4.1667,0.2174 4.7467,0.2174 1.232,0 2.6819,-0.0727 4.4201,-0.2174 l 0,1.1954 c -2.0648,0.1092 -3.3328,0.5439 -4.5288,1.8486 l -7.3571,7.9725 8.9867,11.0875 c 1.1249,1.4138 1.9577,2.5006 4.5659,2.6098 l 0,1.268 c -2.2106,-0.1452 -3.9123,-0.2173 -5.0361,-0.2173 z m -13.516,-22.1766 0,18.0814 c 0,2.3925 0.4713,3.0079 2.9708,3.0445 l 0,1.268 c -1.6301,-0.1452 -3.08,-0.2173 -4.3847,-0.2173 -1.1599,0 -3.0439,0.0721 -5.6155,0.2173 l 0,-1.268 c 2.3908,0 3.0073,-0.7979 3.0073,-3.1177 l 0,-17.7193 c 0,-2.0282 -0.6531,-2.7169 -2.8637,-2.7169 -0.0721,0 -0.1081,0 -0.1808,0 l 0,-1.1599 c 2.1375,0.1447 3.8042,0.2529 5.0007,0.2529 1.268,0 2.9353,-0.1082 5.0733,-0.2529 l 0,1.1599 c -2.1746,0.1082 -3.0074,0.6887 -3.0074,2.428 z" />
  <path
     id="path44"
     style="fill:#00519e;fill-rule:evenodd"
     d="m 480.5205,290.7566 -6.6433,0 3.382,-8.3035 3.2613,8.3035 z m 8.6366,9.6337 0,-1.0572 c -1.4499,-0.0606 -1.7508,-0.5128 -2.174,-1.57 l -7.942,-19.5373 -1.3286,0 -8.0326,18.7825 c -0.6941,1.6613 -1.2375,2.3248 -2.9288,2.3248 -0.0606,0 -0.1207,0 -0.2119,0 l 0,1.0572 c 1.1474,-0.1217 2.2953,-0.1807 3.4427,-0.1807 1.0578,0 2.2341,0.059 3.5939,0.1807 l 0,-1.0572 c -1.842,0 -2.5973,-0.0907 -2.5973,-0.9966 0,-0.2715 0.0912,-0.5434 0.2113,-0.8454 l 2.144,-5.4053 7.6695,0 2.0844,5.4965 c 0.0907,0.272 0.1513,0.5128 0.1513,0.6941 0,0.7547 -0.6946,1.0873 -2.0834,1.0873 -0.1818,0 -0.3631,-0.0306 -0.575,-0.0306 l 0,1.0572 c 1.813,-0.1217 3.2324,-0.1807 4.288,-0.1807 0.605,0 2.0244,0.059 4.2885,0.1807 z" />
  <path
     id="path46"
     style="fill:#00519e;fill-rule:evenodd"
     d="m 503.8024,284.3852 c 0,3.2919 -1.7202,4.8925 -5.2835,4.8925 l -2.5372,0 0,-8.1232 c 0,-1.0567 0.332,-1.3587 2.5962,-1.3587 3.3519,0 5.2245,1.7213 5.2245,4.5894 z m 5.9187,16.0051 0,-1.0872 c -0.1207,0 -0.2119,0 -0.3326,0 -1.3276,0 -1.8409,-0.7247 -2.5661,-2.1735 -1.782,-3.595 -2.6879,-6.4031 -5.5861,-7.3079 3.714,-0.7253 5.7073,-2.8387 5.7073,-5.8886 0,-3.352 -2.4165,-5.2546 -7.0665,-5.2546 -1.0573,0 -3.4722,0.1813 -7.2479,0.1813 -0.6029,0 -1.4488,-0.0312 -2.5361,-0.1207 l 0,0.9666 c 0.0612,0 0.0912,0 0.1513,0 1.8409,0 2.3848,0.5739 2.3848,2.2641 l 0,14.7666 c 0,1.9332 -0.5128,2.5967 -2.5061,2.5967 l 0,1.0572 c 2.1446,-0.1217 3.7146,-0.1807 4.6807,-0.1807 1.0878,0 2.2952,0.059 3.6545,0.1807 l 0,-1.0572 c -2.0845,-0.03 -2.4766,-0.5439 -2.4766,-2.5361 l 0,-6.2512 2.0834,0 c 0.0906,0 0.1818,0 0.2408,0 0.6652,0 1.2391,0.0306 1.753,0.4527 0.9054,0.7553 1.5094,2.4465 2.5361,4.8324 0.7853,1.841 1.3587,3.2614 2.2336,4.0756 0.5138,0.4838 1.238,0.4838 2.2362,0.4838 l 2.6563,0 z" />
  <path
     id="path48"
     style="fill:#00519e;fill-rule:evenodd"
     d="m 528.0804,289.5797 c 0,6.3102 -3.11,9.4514 -9.3012,9.4514 -2.1723,0 -2.8987,-0.1808 -2.8987,-1.3592 l 0,-16.4268 c 0,-1.1774 0.5734,-1.3286 2.5066,-1.3286 2.9599,0 5.1034,0.3932 6.7941,1.8726 1.8726,1.6312 2.8992,4.2874 2.8992,7.7906 z m 3.6846,-0.3631 c 0,-6.8836 -3.8653,-10.6288 -11.2038,-10.6288 -2.446,0 -4.7102,0.272 -6.8536,0.272 -0.877,0 -2.0539,-0.0612 -3.5633,-0.1507 l 0,0.9966 c 0.089,0 0.1502,0 0.2414,0 1.6295,0 2.1429,0.332 2.1429,1.6902 l 0,16.0051 c 0,1.5695 -0.361,1.9321 -2.3554,1.9321 -0.1507,0 -0.3309,0 -0.5428,0 l 0,1.0572 c 1.872,-0.0912 3.4721,-0.1507 4.8314,-0.1507 1.54,0 3.382,0.2108 5.5555,0.2108 7.3996,0 11.7477,-4.348 11.7477,-11.2338 z" />
  <path
     id="path50"
     style="fill:#00519e;fill-rule:evenodd"
     d="m 539.6758,281.7279 0,15.0691 c 0,1.9922 0.3932,2.5061 2.4771,2.5361 l 0,1.0572 c -1.3292,-0.1217 -2.5672,-0.1807 -3.6845,-0.1807 -0.9967,0 -2.5667,0.059 -4.7413,0.1807 l 0,-1.0572 c 1.9944,0 2.5361,-0.6635 2.5361,-2.5967 l 0,-14.7666 c 0,-1.6902 -0.5417,-2.2641 -2.3848,-2.2641 -0.0601,0 -0.0901,0 -0.1513,0 l 0,-0.9666 c 1.7814,0.1207 3.2013,0.2108 4.2285,0.2108 0.9961,0 2.3853,-0.0601 4.2273,-0.2108 l 0,0.9666 c -1.8119,0.0901 -2.5071,0.5739 -2.5071,2.0222 z" />
  <path
     id="path52"
     style="fill:#00519e;fill-rule:evenodd"
     d="m 562.4143,289.4585 c 0,6.2812 -2.8381,9.8746 -7.3674,9.8746 -4.4393,0 -7.1578,-3.5628 -7.1578,-9.8746 0,-6.1595 2.8993,-9.8446 7.2168,-9.8446 4.6811,0 7.3084,3.4132 7.3084,9.8446 z m 3.7146,0 c 0,-6.7345 -4.348,-11.1126 -11.082,-11.1126 -6.6144,0 -10.8707,4.3781 -10.8707,11.1126 0,6.9453 4.2869,11.295 11.0514,11.295 6.6428,0 10.9013,-4.3497 10.9013,-11.295 z" />
  <path
     id="path54"
     style="fill:#00519e;fill-rule:evenodd"
     d="m 578.1169,300.6923 c -6.1906,0 -10.0859,-4.0761 -10.0859,-10.7199 0,-7.2785 4.0471,-11.5659 10.9919,-11.5659 2.0233,0 4.5294,0.4533 7.4286,1.4494 l 0.1513,5.7073 -1.5105,0 -0.4227,-2.2953 c -0.3921,-2.1729 -2.4165,-3.412 -5.5855,-3.412 -4.6506,0 -7.4297,3.3519 -7.4297,9.1499 0,6.16 3.2924,9.9647 7.8212,9.9647 2.8086,0 5.0738,-1.4494 6.432,-4.1367 l 1.1479,0.604 c -1.6312,3.5933 -4.5305,5.2545 -8.9386,5.2545 z" />
  <path
     id="path56"
     style="fill:#00519e;fill-rule:evenodd"
     d="m 606.3208,300.2096 c -1.0878,0 -2.3258,0.059 -3.684,0.1807 l 0,-1.0572 c 2.0829,-0.03 2.4761,-0.5439 2.4761,-2.5361 l 0,-7.2473 -10.9619,0 0,7.2473 c 0,1.9922 0.3932,2.5061 2.4765,2.5361 l 0,1.0572 c -1.3587,-0.1217 -2.5661,-0.1807 -3.6534,-0.1807 -0.966,0 -2.5361,0.059 -4.6806,0.1807 l 0,-1.0572 c 1.9922,0 2.5055,-0.6635 2.5055,-2.5967 l 0,-14.7666 c 0,-1.6902 -0.5434,-2.2641 -2.3854,-2.2641 -0.06,0 -0.0901,0 -0.1501,0 l 0,-0.9666 c 1.7813,0.1207 3.1706,0.2108 4.1667,0.2108 1.0573,0 2.4455,-0.0901 4.2279,-0.2108 l 0,0.9666 c -1.8119,0.0901 -2.5071,0.5739 -2.5071,2.0222 l 0,6.3714 10.9619,0 0,-6.3714 c 0,-1.4483 -0.6941,-1.9321 -2.5061,-2.0222 l 0,-0.9666 c 1.7814,0.1207 3.2002,0.2108 4.2274,0.2108 1.0261,0 2.3859,-0.0901 4.1673,-0.2108 l 0,0.9666 c -0.0612,0 -0.0912,0 -0.1508,0 -1.8414,0 -2.3553,0.5739 -2.3553,2.2641 l 0,14.7666 c 0,1.9332 0.5139,2.5967 2.5061,2.5967 l 0,1.0572 c -2.1446,-0.1217 -3.7146,-0.1807 -4.6807,-0.1807 z" />
  <path
     id="path58"
     style="fill:#00519e;fill-rule:evenodd"
     d="m 618.8533,281.7279 0,15.0691 c 0,1.9922 0.3916,2.5061 2.4749,2.5361 l 0,1.0572 c -1.3281,-0.1217 -2.5661,-0.1807 -3.6834,-0.1807 -0.9967,0 -2.5672,0.059 -4.7402,0.1807 l 0,-1.0572 c 1.9922,0 2.5361,-0.6635 2.5361,-2.5967 l 0,-14.7666 c 0,-1.6902 -0.5439,-2.2641 -2.3859,-2.2641 -0.0612,0 -0.0912,0 -0.1502,0 l 0,-0.9666 c 1.7814,0.1207 3.2002,0.2108 4.2263,0.2108 0.9961,0 2.3859,-0.0601 4.2285,-0.2108 l 0,0.9666 c -1.812,0.0901 -2.5061,0.5739 -2.5061,2.0222 z" />
  <path
     id="path60"
     style="fill:#00519e;fill-rule:evenodd"
     d="m 636.9702,284.3852 c 0,3.2919 -1.7208,4.8925 -5.2841,4.8925 l -2.5361,0 0,-8.1232 c 0,-1.0567 0.331,-1.3587 2.5973,-1.3587 3.3519,0 5.2229,1.7213 5.2229,4.5894 z m 5.9186,16.0051 0,-1.0872 c -0.1207,0 -0.2108,0 -0.3315,0 -1.3286,0 -1.8425,-0.7247 -2.5666,-2.1735 -1.782,-3.595 -2.6879,-6.4031 -5.5872,-7.3079 3.7151,-0.7253 5.7073,-2.8387 5.7073,-5.8886 0,-3.352 -2.4148,-5.2546 -7.066,-5.2546 -1.0567,0 -3.4721,0.1813 -7.2462,0.1813 -0.6051,0 -1.4504,-0.0312 -2.5383,-0.1207 l 0,0.9666 c 0.0612,0 0.0912,0 0.1524,0 1.842,0 2.3859,0.5739 2.3859,2.2641 l 0,14.7666 c 0,1.9332 -0.515,2.5967 -2.5071,2.5967 l 0,1.0572 c 2.144,-0.1217 3.714,-0.1807 4.68,-0.1807 1.0873,0 2.2953,0.059 3.6545,0.1807 l 0,-1.0572 c -2.0839,-0.03 -2.476,-0.5439 -2.476,-2.5361 l 0,-6.2512 2.0839,0 c 0.0902,0 0.1803,0 0.2414,0 0.6635,0 1.238,0.0306 1.7508,0.4527 0.906,0.7553 1.51,2.4465 2.5372,4.8324 0.7842,1.841 1.3593,3.2614 2.2341,4.0756 0.5128,0.4838 1.2386,0.4838 2.2347,0.4838 l 2.6567,0 z" />
  <path
     id="path62"
     style="fill:#00519e;fill-rule:evenodd"
     d="m 661.8227,281.5477 -0.1502,11.9869 c -0.0612,4.7718 -2.8992,7.2189 -8.4547,7.2189 -5.3764,0 -7.9436,-2.2052 -7.9436,-6.8257 l 0,-11.958 c 0,-1.6902 -0.5434,-2.2641 -2.3854,-2.2641 -0.0589,0 -0.0906,0 -0.1507,0 l 0,-0.9666 c 1.8731,0.1207 3.2608,0.2108 4.1673,0.2108 0.936,0 2.3253,-0.0901 4.1673,-0.2108 l 0,0.9666 c -1.812,0.0901 -2.5066,0.5739 -2.5066,2.0222 l 0,10.8417 c 0,4.3186 1.6006,6.1895 5.7979,6.1895 4.1974,0 5.7985,-1.842 5.7985,-6.0082 0,-0.03 0,-0.0912 0,-0.1212 l -0.0611,-10.7505 c 0,-1.6913 -0.604,-2.0834 -2.8081,-2.1735 l 0,-0.9666 c 1.2681,0.1507 2.4149,0.2108 3.5022,0.2108 1.1484,0 2.2958,-0.0601 3.353,-0.2108 l 0,0.9666 c -1.7218,0.2108 -2.2952,0.5739 -2.3258,1.842 z" />
  <path
     id="path64"
     style="fill:#00519e;fill-rule:evenodd"
     d="m 678.7939,284.3852 c 0,3.2919 -1.7213,4.8925 -5.2847,4.8925 l -2.536,0 0,-8.1232 c 0,-1.0567 0.332,-1.3587 2.5972,-1.3587 3.3514,0 5.2235,1.7213 5.2235,4.5894 z m 5.9186,16.0051 0,-1.0872 c -0.1212,0 -0.2108,0 -0.332,0 -1.3292,0 -1.8426,-0.7247 -2.5672,-2.1735 -1.7814,-3.595 -2.6874,-6.4031 -5.5856,-7.3079 3.7135,-0.7253 5.7068,-2.8387 5.7068,-5.8886 0,-3.352 -2.4154,-5.2546 -7.066,-5.2546 -1.0573,0 -3.4732,0.1813 -7.2473,0.1813 -0.6051,0 -1.4505,-0.0312 -2.5372,-0.1207 l 0,0.9666 c 0.0606,0 0.0907,0 0.1507,0 1.8431,0 2.3865,0.5739 2.3865,2.2641 l 0,14.7666 c 0,1.9332 -0.5133,2.5967 -2.5061,2.5967 l 0,1.0572 c 2.1429,-0.1217 3.713,-0.1807 4.679,-0.1807 1.0879,0 2.2964,0.059 3.6545,0.1807 l 0,-1.0572 c -2.0833,-0.03 -2.4754,-0.5439 -2.4754,-2.5361 l 0,-6.2512 2.0833,0 c 0.0912,0 0.1808,0 0.242,0 0.6629,0 1.238,0.0306 1.7502,0.4527 0.9071,0.7553 1.51,2.4465 2.5361,4.8324 0.7858,1.841 1.3598,3.2614 2.2363,4.0756 0.5128,0.4838 1.238,0.4838 2.2341,0.4838 l 2.6573,0 z" />
  <path
     id="path66"
     style="fill:#00519e;fill-rule:evenodd"
     d="m 707.1491,290.6965 c -1.48,0 -1.812,0.5439 -1.812,2.2352 l 0,5.9487 c -3.1712,0.8158 -6.0093,1.8731 -8.9987,1.8731 -6.8246,0 -11.2638,-4.4092 -11.2638,-11.3551 0,-6.8852 4.1673,-10.9919 11.1726,-10.9919 3.1713,0 6.0099,0.936 8.6066,0.9661 l 0.1201,5.7684 -1.4488,0 c -0.1802,-3.4431 -2.4754,-5.1945 -6.794,-5.1945 -4.8314,0 -7.9425,3.4738 -7.9425,9.0292 0,6.1005 3.7146,10.1466 8.8179,10.1466 2.8692,0 4.3792,-0.7858 4.3792,-2.2341 l 0,-4.1673 c 0,-1.7224 -0.6351,-1.9944 -3.1112,-2.0244 l 0,-1.1168 c 1.6924,0.1207 3.1412,0.1808 4.3792,0.1808 0.9961,0 2.4154,-0.0601 4.2585,-0.1808 l 0,1.1168 c -0.1218,0 -0.2419,0 -0.3631,0 z" />
  <path
     id="path68"
     style="fill:#00519e;fill-rule:evenodd"
     d="m 714.6989,281.7279 0,15.0691 c 0,1.9922 0.3916,2.5061 2.4749,2.5361 l 0,1.0572 c -1.3281,-0.1217 -2.5661,-0.1807 -3.6829,-0.1807 -0.9972,0 -2.5672,0.059 -4.7412,0.1807 l 0,-1.0572 c 1.9927,0 2.5366,-0.6635 2.5366,-2.5967 l 0,-14.7666 c 0,-1.6902 -0.5439,-2.2641 -2.3859,-2.2641 -0.0601,0 -0.0901,0 -0.1507,0 l 0,-0.9666 c 1.7808,0.1207 3.2012,0.2108 4.2279,0.2108 0.9961,0 2.3843,-0.0601 4.2274,-0.2108 l 0,0.9666 c -1.812,0.0901 -2.5061,0.5739 -2.5061,2.0222 z" />
  <path
     id="path70"
     style="fill:#00519e;fill-rule:evenodd"
     d="m 725.2064,281.7279 0,15.0691 c 0,1.9922 0.3932,2.5061 2.4766,2.5361 l 0,1.0572 c -1.3281,-0.1217 -2.5672,-0.1807 -3.6835,-0.1807 -0.996,0 -2.5672,0.059 -4.7423,0.1807 l 0,-1.0572 c 1.9933,0 2.5372,-0.6635 2.5372,-2.5967 l 0,-14.7666 c 0,-1.6902 -0.5439,-2.2641 -2.3848,-2.2641 -0.0612,0 -0.0912,0 -0.1524,0 l 0,-0.9666 c 1.7819,0.1207 3.2023,0.2108 4.2285,0.2108 0.996,0 2.3859,-0.0601 4.2262,-0.2108 l 0,0.9666 c -1.8114,0.0901 -2.5055,0.5739 -2.5055,2.0222 z" />
  <path
     id="path72"
     style="fill:#00519e;fill-rule:evenodd"
     d="m 230.1175,322.2207 c 0.5002,0 0.9273,0.177 1.2811,0.5248 0.3479,0.3539 0.5248,0.7809 0.5248,1.2812 0,0.5002 -0.1769,0.9273 -0.5248,1.2871 -0.3538,0.3539 -0.7809,0.5369 -1.2811,0.5369 -0.5003,0 -0.9273,-0.183 -1.2872,-0.5369 -0.3539,-0.3598 -0.5368,-0.7869 -0.5368,-1.2871 0,-0.5003 0.1769,-0.9273 0.5308,-1.2812 0.3479,-0.3478 0.7809,-0.5248 1.2932,-0.5248 z m 1.4826,8.5596 0,13.1588 c 0,1.0251 0.0732,1.7022 0.2256,2.0441 0.1463,0.3413 0.3659,0.5914 0.6591,0.7624 0.2927,0.1649 0.8296,0.2501 1.6045,0.2501 l 0,0.6406 -7.9556,0 0,-0.6406 c 0.7995,0 1.3363,-0.0792 1.6044,-0.2381 0.2747,-0.1524 0.4942,-0.4085 0.6532,-0.7684 0.1643,-0.3539 0.2435,-1.037 0.2435,-2.0501 l 0,-6.314 c 0,-1.7753 -0.0546,-2.9222 -0.1584,-3.447 -0.0851,-0.3844 -0.2195,-0.6465 -0.3964,-0.7929 -0.177,-0.1529 -0.4211,-0.2261 -0.7323,-0.2261 -0.3354,0 -0.7378,0.0918 -1.214,0.2687 l -0.2501,-0.6466 4.9296,-2.0009 0.7869,0 z m 9.3831,3.4896 c 1.1955,-1.196 1.8972,-1.8791 2.1107,-2.0561 0.5368,-0.4576 1.1163,-0.8055 1.7328,-1.0556 0.622,-0.2501 1.232,-0.3779 1.842,-0.3779 1.025,0 1.9097,0.2987 2.648,0.8967 0.7378,0.5914 1.232,1.4581 1.4822,2.5929 1.2265,-1.4341 2.2635,-2.3734 3.1116,-2.819 0.8416,-0.4451 1.7143,-0.6706 2.6049,-0.6706 0.8722,0 1.6411,0.2255 2.3182,0.6706 0.6712,0.4456 1.202,1.178 1.5985,2.1904 0.2621,0.6892 0.3904,1.7754 0.3904,3.2515 l 0,7.0463 c 0,1.0251 0.0792,1.7268 0.2316,2.1047 0.1223,0.2627 0.3418,0.4882 0.6651,0.6712 0.3233,0.1829 0.8421,0.2807 1.5739,0.2807 l 0,0.6406 -8.0834,0 0,-0.6406 0.3419,0 c 0.7012,0 1.2505,-0.1404 1.647,-0.4151 0.2747,-0.1889 0.4697,-0.4942 0.5854,-0.9087 0.0492,-0.2015 0.0738,-0.7809 0.0738,-1.7328 l 0,-7.0463 c 0,-1.3358 -0.159,-2.2756 -0.4822,-2.8244 -0.4637,-0.7624 -1.208,-1.1408 -2.2331,-1.1408 -0.6345,0 -1.2685,0.1583 -1.9031,0.4696 -0.6406,0.3173 -1.4095,0.9027 -2.3182,1.7634 l -0.0366,0.1949 0.0366,0.7689 0,7.8147 c 0,1.1168 0.0672,1.812 0.1889,2.0867 0.1284,0.2741 0.3599,0.5062 0.7078,0.6892 0.3413,0.1829 0.9333,0.2807 1.7693,0.2807 l 0,0.6406 -8.2788,0 0,-0.6406 c 0.9092,0 1.5312,-0.1098 1.8731,-0.3233 0.3353,-0.2135 0.5734,-0.5368 0.7012,-0.9639 0.0611,-0.2075 0.0917,-0.7929 0.0917,-1.7694 l 0,-7.0463 c 0,-1.3358 -0.1955,-2.2936 -0.5919,-2.873 -0.5243,-0.7629 -1.2566,-1.1474 -2.1959,-1.1474 -0.6471,0 -1.2812,0.1709 -1.9157,0.5188 -0.9885,0.5248 -1.7508,1.1162 -2.2877,1.7694 l 0,8.7785 c 0,1.0677 0.0792,1.7694 0.2256,2.0867 0.1463,0.3233 0.3719,0.5674 0.6586,0.7258 0.2932,0.1589 0.8847,0.2441 1.7814,0.2441 l 0,0.6406 -8.0954,0 0,-0.6406 c 0.7503,0 1.2751,-0.0852 1.5738,-0.2441 0.2933,-0.1584 0.5248,-0.4145 0.6772,-0.7684 0.1529,-0.3539 0.2321,-1.031 0.2321,-2.0441 l 0,-6.2594 c 0,-1.7994 -0.0552,-2.9587 -0.1589,-3.483 -0.0852,-0.397 -0.2196,-0.6651 -0.3965,-0.8115 -0.1769,-0.1529 -0.421,-0.2261 -0.7318,-0.2261 -0.3358,0 -0.7323,0.0918 -1.1959,0.2687 l -0.2682,-0.6466 4.9291,-2.0009 0.7689,0 0,3.4896 z m 27.0446,9.9013 c 0.5608,0 1.0305,0.189 1.4089,0.5795 0.3845,0.3844 0.5734,0.8541 0.5734,1.4029 0,0.5494 -0.1949,1.013 -0.5794,1.4035 -0.3844,0.3844 -0.8541,0.5794 -1.4029,0.5794 -0.5494,0 -1.019,-0.195 -1.4035,-0.5794 -0.3844,-0.3905 -0.5794,-0.8541 -0.5794,-1.4035 0,-0.5609 0.195,-1.0311 0.5794,-1.415 0.3845,-0.3784 0.8541,-0.5674 1.4035,-0.5674 z m 13.6896,-11.2802 5.0389,-2.0375 0.6837,0 0,3.8249 c 0.8416,-1.4395 1.6897,-2.4526 2.5438,-3.032 0.8541,-0.5734 1.7508,-0.8661 2.6906,-0.8661 1.6471,0 3.0134,0.6466 4.1116,1.9337 1.3483,1.5739 2.0195,3.618 2.0195,6.1497 0,2.8184 -0.8115,5.1546 -2.434,7.0032 -1.3303,1.5132 -3.0139,2.2696 -5.0394,2.2696 -0.8787,0 -1.641,-0.1218 -2.2876,-0.3719 -0.4762,-0.1835 -1.013,-0.5368 -1.6045,-1.0742 l 0,4.9843 c 0,1.1227 0.0672,1.8305 0.201,2.1352 0.1403,0.3053 0.3784,0.5494 0.7203,0.7263 0.3353,0.177 0.9513,0.2682 1.848,0.2682 l 0,0.6591 -8.5836,0 0,-0.6591 0.4516,0 c 0.6526,0.0125 1.214,-0.1158 1.6776,-0.3779 0.2261,-0.1284 0.4031,-0.3419 0.5309,-0.6346 0.1223,-0.2927 0.1829,-1.031 0.1829,-2.2204 l 0,-15.4836 c 0,-1.0557 -0.0426,-1.7328 -0.1403,-2.0195 -0.0973,-0.2867 -0.2502,-0.5003 -0.4577,-0.6406 -0.207,-0.1464 -0.4876,-0.2135 -0.8475,-0.2135 -0.2867,0 -0.6472,0.0792 -1.0922,0.2501 l -0.2136,-0.5734 z m 5.7226,2.843 0,6.1125 c 0,1.3243 0.0486,2.1904 0.1584,2.6114 0.1649,0.6892 0.5734,1.2932 1.2265,1.818 0.6466,0.5248 1.4641,0.7869 2.4586,0.7869 1.1894,0 2.1533,-0.4636 2.8916,-1.3909 0.9639,-1.214 1.4455,-2.9282 1.4455,-5.1306 0,-2.5017 -0.5428,-4.4294 -1.641,-5.7712 -0.7624,-0.9338 -1.6716,-1.3975 -2.7147,-1.3975 -0.5734,0 -1.1408,0.1469 -1.7022,0.4271 -0.427,0.2201 -1.1348,0.8607 -2.1227,1.9343 z m 18.5522,-4.9537 0,3.6845 c 1.3663,-2.4585 2.7758,-3.6845 4.2153,-3.6845 0.6526,0 1.196,0.201 1.629,0.5974 0.4271,0.4031 0.6406,0.8667 0.6406,1.385 0,0.4696 -0.1523,0.8601 -0.4636,1.1839 -0.3113,0.3233 -0.6772,0.4817 -1.1102,0.4817 -0.4151,0 -0.8847,-0.2076 -1.4035,-0.616 -0.5183,-0.4091 -0.9027,-0.6166 -1.1528,-0.6166 -0.2136,0 -0.4457,0.1163 -0.6958,0.3539 -0.5368,0.4882 -1.0916,1.2937 -1.659,2.4159 l 0,7.8459 c 0,0.9027 0.1097,1.5918 0.3353,2.0555 0.1589,0.3233 0.433,0.592 0.8235,0.8055 0.3965,0.2135 0.9579,0.3233 1.6962,0.3233 l 0,0.6406 -8.3827,0 0,-0.6406 c 0.8361,0 1.4581,-0.1344 1.8612,-0.3965 0.2987,-0.1889 0.5062,-0.4942 0.628,-0.9093 0.0551,-0.2069 0.0857,-0.7809 0.0857,-1.7382 l 0,-6.3451 c 0,-1.9032 -0.0366,-3.038 -0.1158,-3.4039 -0.0737,-0.3599 -0.22,-0.6285 -0.427,-0.7935 -0.2075,-0.1643 -0.4702,-0.2501 -0.7809,-0.2501 -0.3665,0 -0.781,0.0918 -1.2512,0.2687 l -0.1764,-0.6466 4.9537,-2.0009 0.7504,0 z m 15.4038,0 c 2.4771,0 4.4655,0.9453 5.9727,2.8244 1.2752,1.6105 1.9092,3.459 1.9092,5.5397 0,1.4701 -0.3539,2.9522 -1.0551,4.4534 -0.7017,1.5007 -1.6716,2.6355 -2.9041,3.3979 -1.232,0.7623 -2.6049,1.1408 -4.1176,1.1408 -2.4711,0 -4.4294,-0.9825 -5.8815,-2.9468 -1.226,-1.659 -1.842,-3.5201 -1.842,-5.5757 0,-1.5072 0.3719,-2.9953 1.1162,-4.478 0.7443,-1.4827 1.7262,-2.5809 2.9408,-3.2881 1.2139,-0.7137 2.5011,-1.0676 3.8614,-1.0676 z m -0.5553,1.1648 c -0.6281,0 -1.2626,0.183 -1.9032,0.5614 -0.6346,0.3785 -1.1528,1.0311 -1.5433,1.9769 -0.397,0.9393 -0.592,2.1473 -0.592,3.6234 0,2.3854 0.4757,4.4414 1.4215,6.1682 0.9453,1.7262 2.1965,2.5923 3.7457,2.5923 1.1529,0 2.1047,-0.4756 2.8611,-1.4275 0.7509,-0.9578 1.1227,-2.5923 1.1227,-4.9171 0,-2.9101 -0.622,-5.1977 -1.8791,-6.8634 -0.8415,-1.1468 -1.9217,-1.7142 -3.2334,-1.7142 z m 17.2469,0.604 0,10.762 c 0,1.5247 0.1709,2.4886 0.5002,2.8976 0.4451,0.5248 1.0311,0.787 1.7694,0.787 l 1.4881,0 0,0.6406 -9.779,0 0,-0.6406 0.7318,0 c 0.4762,0 0.9152,-0.1218 1.3057,-0.3599 0.3905,-0.2381 0.6652,-0.5614 0.8115,-0.9639 0.1524,-0.409 0.2255,-1.1959 0.2255,-2.3608 l 0,-10.762 -3.1843,0 0,-1.2871 3.1843,0 0,-1.0677 c 0,-1.635 0.2622,-3.0199 0.787,-4.1481 0.5248,-1.1348 1.3237,-2.0501 2.4039,-2.7453 1.0797,-0.6957 2.2876,-1.0436 3.636,-1.0436 1.2505,0 2.4033,0.403 3.4529,1.214 0.6892,0.5368 1.0311,1.1408 1.0311,1.8059 0,0.3599 -0.1529,0.6958 -0.4637,1.0065 -0.3112,0.3173 -0.6405,0.4762 -1.0004,0.4762 -0.2747,0 -0.5614,-0.0977 -0.8667,-0.2932 -0.3047,-0.195 -0.6771,-0.6221 -1.1162,-1.2686 -0.4391,-0.6526 -0.8481,-1.0862 -1.214,-1.3178 -0.3724,-0.2261 -0.7809,-0.3358 -1.2325,-0.3358 -0.5489,0 -1.0125,0.1469 -1.397,0.4396 -0.3784,0.2867 -0.6526,0.7443 -0.8235,1.3543 -0.1649,0.616 -0.2501,2.1959 -0.2501,4.7462 l 0,1.1774 4.2214,0 0,1.2871 -4.2214,0 z m 9.2242,11.6221 c 0.5608,0 1.0305,0.189 1.4089,0.5795 0.3845,0.3844 0.5734,0.8541 0.5734,1.4029 0,0.5494 -0.1949,1.013 -0.5794,1.4035 -0.3844,0.3844 -0.8541,0.5794 -1.4029,0.5794 -0.5494,0 -1.019,-0.195 -1.4035,-0.5794 -0.3844,-0.3905 -0.5794,-0.8541 -0.5794,-1.4035 0,-0.5609 0.195,-1.0311 0.5794,-1.415 0.3845,-0.3784 0.8541,-0.5674 1.4035,-0.5674 z m 34.7795,-20.7731 -15.9226,22.7741 9.9379,0 c 1.5253,0 2.6966,-0.3359 3.5081,-1.0005 0.8176,-0.6712 1.5433,-2.0195 2.1719,-4.057 l 0.5914,0.1038 -1.1408,6.4178 -19.7355,0 0,-0.6592 15.5507,-22.1269 -7.754,0 c -1.2872,0 -2.2205,0.1403 -2.8004,0.415 -0.5795,0.2807 -1.0185,0.6892 -1.3238,1.22 -0.3047,0.5308 -0.5794,1.5193 -0.8295,2.9708 l -0.6772,0 0.5002,-6.0579 17.9236,0 z m 6.9366,10.6883 c 1.5864,-2.2019 3.2946,-3.3061 5.1306,-3.3061 1.6776,0 3.1417,0.7198 4.3928,2.1533 1.2506,1.44 1.8786,3.3984 1.8786,5.8935 0,2.9036 -0.9638,5.2464 -2.8976,7.0218 -1.653,1.5252 -3.5016,2.2876 -5.5396,2.2876 -0.9513,0 -1.9218,-0.171 -2.9037,-0.5188 -0.9824,-0.3473 -1.9889,-0.8661 -3.0139,-1.5553 l 0,-16.9603 c 0,-1.8605 -0.0426,-3.0013 -0.1343,-3.4344 -0.0852,-0.427 -0.2256,-0.7198 -0.4145,-0.8721 -0.1955,-0.1589 -0.4331,-0.2321 -0.7198,-0.2321 -0.3298,0 -0.7503,0.0917 -1.2511,0.2867 l -0.2501,-0.6286 4.9176,-2.0009 0.805,0 0,11.8657 z m 0,1.1474 0,9.7915 c 0.604,0.5975 1.2325,1.0491 1.8851,1.3484 0.6466,0.3047 1.3118,0.4571 1.9949,0.4571 1.0797,0 2.0927,-0.5975 3.026,-1.7874 0.9333,-1.1894 1.4029,-2.9222 1.4029,-5.1978 0,-2.0987 -0.4696,-3.7091 -1.4029,-4.8379 -0.9333,-1.1223 -1.9949,-1.6897 -3.1909,-1.6897 -0.628,0 -1.2626,0.165 -1.8911,0.4817 -0.4757,0.2381 -1.0857,0.7203 -1.824,1.4341 z m 17.9787,-13.0131 c 0.5002,0 0.9273,0.177 1.2812,0.5248 0.3478,0.3539 0.5248,0.7809 0.5248,1.2812 0,0.5002 -0.177,0.9273 -0.5248,1.2871 -0.3539,0.3539 -0.781,0.5369 -1.2812,0.5369 -0.5002,0 -0.9273,-0.183 -1.2871,-0.5369 -0.3539,-0.3598 -0.5369,-0.7869 -0.5369,-1.2871 0,-0.5003 0.177,-0.9273 0.5308,-1.2812 0.3479,-0.3478 0.781,-0.5248 1.2932,-0.5248 z m 1.4827,8.5596 0,13.1588 c 0,1.0251 0.0732,1.7022 0.2255,2.0441 0.1464,0.3413 0.3659,0.5914 0.6592,0.7624 0.2927,0.1649 0.8295,0.2501 1.6044,0.2501 l 0,0.6406 -7.9556,0 0,-0.6406 c 0.7995,0 1.3363,-0.0792 1.6045,-0.2381 0.2746,-0.1524 0.4942,-0.4085 0.6531,-0.7684 0.1644,-0.3539 0.2436,-1.037 0.2436,-2.0501 l 0,-6.314 c 0,-1.7753 -0.0547,-2.9222 -0.1584,-3.447 -0.0852,-0.3844 -0.2196,-0.6465 -0.3965,-0.7929 -0.1769,-0.1529 -0.421,-0.2261 -0.7323,-0.2261 -0.3353,0 -0.7378,0.0918 -1.214,0.2687 l -0.2501,-0.6466 4.9296,-2.0009 0.787,0 z m 8.9009,10.8832 c -1.0005,-0.4876 -1.7694,-1.1648 -2.3062,-2.0435 -0.5368,-0.8786 -0.799,-1.8425 -0.799,-2.9041 0,-1.6225 0.61,-3.0134 1.83,-4.1848 1.2206,-1.1654 2.7819,-1.7508 4.6916,-1.7508 1.5618,0 2.9102,0.3839 4.057,1.1468 l 3.465,0 c 0.5128,0 0.8115,0.012 0.8967,0.0426 0.0797,0.0306 0.1403,0.0792 0.1769,0.1524 0.0732,0.1097 0.1098,0.2992 0.1098,0.5734 0,0.3113 -0.0301,0.5248 -0.0912,0.6406 -0.0366,0.0611 -0.0978,0.1097 -0.189,0.1469 -0.0857,0.0365 -0.3904,0.0486 -0.9032,0.0486 l -2.1227,0 c 0.6646,0.8601 1.0004,1.9583 1.0004,3.294 0,1.5253 -0.5859,2.825 -1.7508,3.9107 -1.1714,1.0862 -2.7392,1.629 -4.7041,1.629 -0.8109,0 -1.6345,-0.1218 -2.4826,-0.3599 -0.5248,0.4516 -0.8786,0.8481 -1.0616,1.1894 -0.1889,0.3419 -0.2807,0.6286 -0.2807,0.8667 0,0.2009 0.0978,0.3964 0.2927,0.5914 0.2016,0.1895 0.586,0.3233 1.1534,0.409 0.3353,0.0486 1.1714,0.0912 2.5072,0.1278 2.4525,0.0552 4.0449,0.1404 4.7707,0.2501 1.1042,0.1529 1.9889,0.5614 2.654,1.2326 0.6586,0.6651 0.9879,1.4887 0.9879,2.4645 0,1.3484 -0.628,2.6109 -1.8911,3.7889 -1.8606,1.7382 -4.2825,2.6109 -7.2719,2.6109 -2.3002,0 -4.2459,-0.5188 -5.8323,-1.5559 -0.8907,-0.5979 -1.3358,-1.2139 -1.3358,-1.8605 0,-0.2867 0.0606,-0.5674 0.195,-0.8541 0.2015,-0.4456 0.6225,-1.0556 1.2505,-1.8426 0.0858,-0.1097 0.6898,-0.7503 1.8245,-1.9277 -0.6225,-0.3719 -1.0556,-0.7017 -1.3117,-0.9944 -0.2567,-0.2928 -0.3844,-0.6221 -0.3844,-0.9945 0,-0.4145 0.1643,-0.9027 0.5062,-1.4641 0.3419,-0.5614 1.1228,-1.3543 2.3488,-2.3794 z m 3.1111,-10.0231 c -0.8781,0 -1.6225,0.3539 -2.2144,1.0551 -0.598,0.7017 -0.8967,1.7814 -0.8967,3.2334 0,1.8852 0.409,3.3433 1.22,4.3803 0.6165,0.7869 1.4034,1.1774 2.3547,1.1774 0.9093,0 1.6536,-0.3353 2.2331,-1.0185 0.5859,-0.6771 0.8786,-1.7448 0.8786,-3.1968 0,-1.8972 -0.409,-3.3799 -1.2325,-4.4535 -0.61,-0.7869 -1.3909,-1.1774 -2.3428,-1.1774 z m -3.2881,15.9959 c -0.5614,0.6099 -0.9819,1.1713 -1.2691,1.6961 -0.2867,0.5243 -0.4271,1.0065 -0.4271,1.4516 0,0.5674 0.3419,1.0676 1.0376,1.5012 1.1894,0.7378 2.9097,1.1042 5.1612,1.1042 2.1473,0 3.7272,-0.3784 4.7462,-1.1348 1.0185,-0.7569 1.5313,-1.5618 1.5313,-2.4219 0,-0.6166 -0.3053,-1.0556 -0.9153,-1.3178 -0.616,-0.2626 -1.8485,-0.421 -3.6785,-0.4702 -2.6847,-0.0666 -4.7462,-0.2069 -6.1863,-0.4084 z m 18.8755,-13.385 c 1.9157,-2.3122 3.7457,-3.471 5.4845,-3.471 0.8967,0 1.6656,0.2255 2.3061,0.6706 0.6466,0.4456 1.1594,1.184 1.5373,2.2084 0.2627,0.7143 0.3905,1.812 0.3905,3.2887 l 0,6.9911 c 0,1.0311 0.0857,1.7388 0.2561,2.1047 0.1283,0.2993 0.3419,0.5308 0.6346,0.7018 0.2867,0.1649 0.8295,0.2501 1.617,0.2501 l 0,0.6406 -8.102,0 0,-0.6406 0.3419,0 c 0.7623,0 1.2991,-0.1218 1.5979,-0.3539 0.3052,-0.2315 0.5188,-0.5734 0.6345,-1.025 0.0492,-0.177 0.0732,-0.7378 0.0732,-1.6777 l 0,-6.7044 c 0,-1.4887 -0.1949,-2.5683 -0.5794,-3.2455 -0.3905,-0.6712 -1.0431,-1.007 -1.9583,-1.007 -1.4155,0 -2.8305,0.7749 -4.2339,2.3247 l 0,8.6322 c 0,1.1043 0.0611,1.7874 0.1955,2.0501 0.1643,0.3479 0.3964,0.604 0.6891,0.7624 0.2928,0.1589 0.8847,0.2441 1.7754,0.2441 l 0,0.6406 -8.0954,0 0,-0.6406 0.3599,0 c 0.8295,0 1.3969,-0.2136 1.6896,-0.6346 0.2867,-0.427 0.4331,-1.232 0.4331,-2.422 l 0,-6.0824 c 0,-1.9643 -0.0426,-3.1598 -0.1343,-3.5868 -0.0852,-0.4336 -0.2256,-0.7263 -0.4085,-0.8787 -0.183,-0.1523 -0.4331,-0.2321 -0.7444,-0.2321 -0.3293,0 -0.7317,0.0918 -1.1954,0.2687 l -0.2687,-0.6466 4.9357,-2.0009 0.7684,0 0,3.471 z m 17.692,-12.0306 c 0.5002,0 0.9273,0.177 1.2811,0.5248 0.3479,0.3539 0.5248,0.7809 0.5248,1.2812 0,0.5002 -0.1769,0.9273 -0.5248,1.2871 -0.3538,0.3539 -0.7809,0.5369 -1.2811,0.5369 -0.5002,0 -0.9273,-0.183 -1.2872,-0.5369 -0.3538,-0.3598 -0.5368,-0.7869 -0.5368,-1.2871 0,-0.5003 0.177,-0.9273 0.5308,-1.2812 0.3479,-0.3478 0.7809,-0.5248 1.2932,-0.5248 z m 1.4827,8.5596 0,13.1588 c 0,1.0251 0.0731,1.7022 0.2255,2.0441 0.1463,0.3413 0.3659,0.5914 0.6591,0.7624 0.2927,0.1649 0.8296,0.2501 1.6045,0.2501 l 0,0.6406 -7.9556,0 0,-0.6406 c 0.7995,0 1.3363,-0.0792 1.6044,-0.2381 0.2747,-0.1524 0.4943,-0.4085 0.6532,-0.7684 0.1643,-0.3539 0.2435,-1.037 0.2435,-2.0501 l 0,-6.314 c 0,-1.7753 -0.0546,-2.9222 -0.1583,-3.447 -0.0852,-0.3844 -0.2196,-0.6465 -0.3965,-0.7929 -0.1769,-0.1529 -0.4211,-0.2261 -0.7323,-0.2261 -0.3353,0 -0.7378,0.0918 -1.214,0.2687 l -0.2501,-0.6466 4.9296,-2.0009 0.787,0 z m 7.2778,6.6493 c -0.012,2.4345 0.574,4.3377 1.7694,5.7226 1.19,1.3789 2.5929,2.0681 4.1973,2.0681 1.0737,0 2.007,-0.2927 2.8004,-0.8847 0.793,-0.5854 1.4516,-1.5984 1.9889,-3.0259 l 0.5549,0.3538 c -0.2501,1.6351 -0.9759,3.1237 -2.1779,4.4601 -1.2079,1.3417 -2.7146,2.0129 -4.5206,2.0129 -1.9703,0 -3.6545,-0.7624 -5.0514,-2.2936 -1.403,-1.5313 -2.0987,-3.5934 -2.0987,-6.1803 0,-2.8004 0.7138,-4.9842 2.1538,-6.5461 1.4335,-1.5678 3.2329,-2.3548 5.4048,-2.3548 1.8365,0 3.3432,0.604 4.5206,1.818 1.178,1.208 1.7694,2.8244 1.7694,4.8499 l -11.3109,0 z m 0,-1.037 7.5772,0 c -0.0606,-1.0491 -0.183,-1.7874 -0.3779,-2.2145 -0.2933,-0.6651 -0.7383,-1.1894 -1.3303,-1.5738 -0.5914,-0.3785 -1.208,-0.5734 -1.8486,-0.5734 -0.9879,0 -1.8725,0.3844 -2.6535,1.1528 -0.7809,0.7689 -1.2385,1.8425 -1.3669,3.2089 z m 12.58,-5.1306 6.8629,0 0,0.6651 c -0.6281,0.0486 -1.0431,0.1584 -1.2446,0.3353 -0.195,0.183 -0.2927,0.4396 -0.2927,0.7689 0,0.3719 0.1037,0.8175 0.3053,1.3423 l 3.5016,9.4192 3.5201,-7.6684 -0.9273,-2.4099 c -0.2867,-0.7137 -0.6591,-1.208 -1.1287,-1.4827 -0.2622,-0.1703 -0.7504,-0.2681 -1.4641,-0.3047 l 0,-0.6651 7.7966,0 0,0.6651 c -0.8601,0.0366 -1.4701,0.189 -1.8239,0.4637 -0.2381,0.1889 -0.3599,0.4942 -0.3599,0.9087 0,0.2381 0.0486,0.4822 0.1463,0.7323 l 3.7152,9.4071 3.4469,-9.0653 c 0.2381,-0.6405 0.3599,-1.1533 0.3599,-1.5378 0,-0.2255 -0.1157,-0.427 -0.3478,-0.604 -0.2316,-0.1829 -0.6892,-0.2801 -1.3664,-0.3047 l 0,-0.6651 5.1612,0 0,0.6651 c -1.037,0.1524 -1.7999,0.8541 -2.2876,2.1047 l -5.4665,14.1047 -0.7323,0 -4.093,-10.4568 -4.7707,10.4568 -0.6652,0 -5.2529,-13.7629 c -0.3474,-0.8666 -0.6832,-1.458 -1.0185,-1.7573 -0.3359,-0.3047 -0.8601,-0.5368 -1.5739,-0.6892 l 0,-0.6651 z m 36.6221,14.0135 c -1.6776,1.2991 -2.7333,2.0495 -3.1663,2.251 -0.6406,0.2987 -1.3238,0.4516 -2.0501,0.4516 -1.1348,0 -2.0681,-0.3905 -2.7998,-1.1654 -0.7324,-0.7749 -1.0982,-1.7939 -1.0982,-3.0565 0,-0.7989 0.1769,-1.4887 0.5368,-2.0741 0.4876,-0.8055 1.3357,-1.5678 2.5437,-2.2876 1.208,-0.7143 3.2215,-1.5804 6.0339,-2.6054 l 0,-0.6466 c 0,-1.6291 -0.2567,-2.7513 -0.7749,-3.3613 -0.5188,-0.604 -1.2752,-0.9092 -2.2636,-0.9092 -0.7504,0 -1.3483,0.2015 -1.7874,0.61 -0.4516,0.403 -0.6772,0.8666 -0.6772,1.3909 l 0.0366,1.0376 c 0,0.5488 -0.1403,0.9698 -0.421,1.2686 -0.2807,0.2992 -0.6466,0.4456 -1.0982,0.4456 -0.4451,0 -0.805,-0.1529 -1.0857,-0.4637 -0.2807,-0.3112 -0.421,-0.7323 -0.421,-1.2691 0,-1.025 0.5248,-1.9643 1.5738,-2.8244 1.0496,-0.8541 2.5197,-1.2872 4.4169,-1.2872 1.4521,0 2.642,0.2436 3.5753,0.7318 0.7012,0.3724 1.22,0.9518 1.5553,1.7388 0.2135,0.5122 0.3173,1.5558 0.3173,3.1417 l 0,5.5576 c 0,1.5619 0.0306,2.5198 0.0917,2.8736 0.0612,0.3479 0.1584,0.5855 0.2927,0.7018 0.1404,0.1218 0.2993,0.1829 0.4762,0.1829 0.189,0 0.3599,-0.0426 0.5003,-0.1283 0.2501,-0.1524 0.7318,-0.5914 1.4455,-1.3052 l 0,1.0005 c -1.3298,1.7873 -2.6049,2.684 -3.8249,2.684 -0.5794,0 -1.0436,-0.2015 -1.3909,-0.61 -0.3479,-0.4024 -0.5248,-1.0982 -0.5368,-2.074 z m 0,-1.1594 0,-6.2409 c -1.8,0.7198 -2.9588,1.226 -3.4836,1.5193 -0.9458,0.5243 -1.617,1.0736 -2.0195,1.647 -0.4085,0.5734 -0.61,1.1955 -0.61,1.8792 0,0.8541 0.2561,1.5678 0.7689,2.1352 0.5123,0.5609 1.1043,0.8476 1.7689,0.8476 0.9092,0 2.0986,-0.5975 3.5753,-1.7874 z m 39.7152,3.5202 -6.473,0 -8.2051,-11.3289 c -0.604,0.018 -1.0982,0.0306 -1.4827,0.0306 -0.1524,0 -0.3173,0 -0.5002,-0.006 -0.177,-0.007 -0.3599,-0.0126 -0.5554,-0.0246 l 0,7.0403 c 0,1.5247 0.1709,2.4706 0.5002,2.8425 0.4576,0.5248 1.1348,0.7869 2.0381,0.7869 l 0.9513,0 0,0.6592 -10.383,0 0,-0.6592 0.9087,0 c 1.025,0 1.7573,-0.3353 2.1964,-1.0004 0.2501,-0.3719 0.3779,-1.2506 0.3779,-2.629 l 0,-15.6605 c 0,-1.5253 -0.1704,-2.4711 -0.5002,-2.837 -0.4637,-0.5248 -1.1589,-0.7869 -2.0741,-0.7869 l -0.9087,0 0,-0.6652 8.8277,0 c 2.5743,0 4.4714,0.1895 5.6914,0.5674 1.2206,0.3725 2.2576,1.0616 3.1117,2.0681 0.8481,1.013 1.2752,2.2084 1.2752,3.6059 0,1.4881 -0.4822,2.7818 -1.4581,3.88 -0.9704,1.0917 -2.4711,1.8666 -4.5086,2.3182 l 5.0028,6.9546 c 1.1408,1.5985 2.1287,2.6601 2.9462,3.1844 0.8235,0.5187 1.8977,0.8541 3.2215,1.0004 l 0,0.6592 z m -17.2164,-12.4577 c 0.2321,0 0.427,0 0.592,0.006 0.1643,0.006 0.3047,0.0126 0.4084,0.0126 2.3122,0 4.057,-0.5003 5.2284,-1.5007 1.1774,-1.001 1.7634,-2.2756 1.7634,-3.8255 0,-1.5127 -0.4762,-2.7452 -1.4215,-3.691 -0.9459,-0.9453 -2.2025,-1.4215 -3.7643,-1.4215 -0.6892,0 -1.623,0.1163 -2.8064,0.3418 l 0,10.0783 z m 20.7911,2.251 c -0.012,2.4345 0.574,4.3377 1.7694,5.7226 1.19,1.3789 2.5929,2.0681 4.1973,2.0681 1.0737,0 2.0069,-0.2927 2.8004,-0.8847 0.793,-0.5854 1.4516,-1.5984 1.9889,-3.0259 l 0.5549,0.3538 c -0.2501,1.6351 -0.9759,3.1237 -2.1779,4.4601 -1.208,1.3417 -2.7146,2.0129 -4.5206,2.0129 -1.9703,0 -3.6545,-0.7624 -5.0514,-2.2936 -1.403,-1.5313 -2.0987,-3.5934 -2.0987,-6.1803 0,-2.8004 0.7138,-4.9842 2.1538,-6.5461 1.4335,-1.5678 3.2329,-2.3548 5.4048,-2.3548 1.8365,0 3.3432,0.604 4.5206,1.818 1.1779,1.208 1.7694,2.8244 1.7694,4.8499 l -11.3109,0 z m 0,-1.037 7.5772,0 c -0.0606,-1.0491 -0.183,-1.7874 -0.3779,-2.2145 -0.2933,-0.6651 -0.7383,-1.1894 -1.3303,-1.5738 -0.5914,-0.3785 -1.208,-0.5734 -1.8486,-0.5734 -0.9879,0 -1.8726,0.3844 -2.6535,1.1528 -0.7809,0.7689 -1.2385,1.8425 -1.3669,3.2089 z m 19.1196,-14.1719 0,21.7184 c 0,1.0251 0.0792,1.7022 0.2261,2.0376 0.1463,0.3298 0.3779,0.5859 0.6891,0.7568 0.3113,0.1704 0.8847,0.2622 1.7328,0.2622 l 0,0.6406 -8.0228,0 0,-0.6406 c 0.7504,0 1.2632,-0.0792 1.5313,-0.2381 0.2747,-0.1524 0.4942,-0.4085 0.6466,-0.7684 0.1529,-0.3539 0.2321,-1.037 0.2321,-2.0501 l 0,-14.8736 c 0,-1.848 -0.0426,-2.9828 -0.1223,-3.4038 -0.0852,-0.421 -0.2196,-0.7138 -0.4025,-0.8661 -0.189,-0.1589 -0.4211,-0.2321 -0.7078,-0.2321 -0.3107,0 -0.7012,0.0917 -1.1774,0.2867 l -0.3047,-0.6286 4.8805,-2.0009 0.799,0 z m 8.7059,0 c 0.5002,0 0.9273,0.177 1.2812,0.5248 0.3478,0.3539 0.5248,0.7809 0.5248,1.2812 0,0.5002 -0.177,0.9273 -0.5248,1.2871 -0.3539,0.3539 -0.781,0.5369 -1.2812,0.5369 -0.5002,0 -0.9273,-0.183 -1.2872,-0.5369 -0.3538,-0.3598 -0.5368,-0.7869 -0.5368,-1.2871 0,-0.5003 0.177,-0.9273 0.5308,-1.2812 0.3479,-0.3478 0.781,-0.5248 1.2932,-0.5248 z m 1.4827,8.5596 0,13.1588 c 0,1.0251 0.0731,1.7022 0.2255,2.0441 0.1464,0.3413 0.3659,0.5914 0.6592,0.7624 0.2927,0.1649 0.8295,0.2501 1.6044,0.2501 l 0,0.6406 -7.9556,0 0,-0.6406 c 0.7995,0 1.3363,-0.0792 1.6044,-0.2381 0.2747,-0.1524 0.4943,-0.4085 0.6532,-0.7684 0.1644,-0.3539 0.2435,-1.037 0.2435,-2.0501 l 0,-6.314 c 0,-1.7753 -0.0546,-2.9222 -0.1583,-3.447 -0.0852,-0.3844 -0.2196,-0.6465 -0.3965,-0.7929 -0.1769,-0.1529 -0.421,-0.2261 -0.7323,-0.2261 -0.3353,0 -0.7378,0.0918 -1.214,0.2687 l -0.2501,-0.6466 4.9296,-2.0009 0.787,0 z m 8.9009,10.8832 c -1.0005,-0.4876 -1.7694,-1.1648 -2.3062,-2.0435 -0.5368,-0.8786 -0.799,-1.8425 -0.799,-2.9041 0,-1.6225 0.61,-3.0134 1.83,-4.1848 1.2206,-1.1654 2.7819,-1.7508 4.6916,-1.7508 1.5618,0 2.9101,0.3839 4.057,1.1468 l 3.465,0 c 0.5128,0 0.8115,0.012 0.8967,0.0426 0.0797,0.0306 0.1403,0.0792 0.1769,0.1524 0.0732,0.1097 0.1098,0.2992 0.1098,0.5734 0,0.3113 -0.0301,0.5248 -0.0912,0.6406 -0.0366,0.0611 -0.0978,0.1097 -0.189,0.1469 -0.0857,0.0365 -0.3904,0.0486 -0.9032,0.0486 l -2.1227,0 c 0.6646,0.8601 1.0004,1.9583 1.0004,3.294 0,1.5253 -0.5859,2.825 -1.7508,3.9107 -1.1714,1.0862 -2.7392,1.629 -4.7041,1.629 -0.8109,0 -1.6345,-0.1218 -2.4826,-0.3599 -0.5248,0.4516 -0.8786,0.8481 -1.0616,1.1894 -0.1889,0.3419 -0.2807,0.6286 -0.2807,0.8667 0,0.2009 0.0978,0.3964 0.2927,0.5914 0.2015,0.1895 0.586,0.3233 1.1534,0.409 0.3353,0.0486 1.1714,0.0912 2.5071,0.1278 2.4526,0.0552 4.045,0.1404 4.7708,0.2501 1.1042,0.1529 1.9889,0.5614 2.654,1.2326 0.6586,0.6651 0.9879,1.4887 0.9879,2.4645 0,1.3484 -0.628,2.6109 -1.8911,3.7889 -1.8606,1.7382 -4.2825,2.6109 -7.2719,2.6109 -2.3002,0 -4.2459,-0.5188 -5.8324,-1.5559 -0.8906,-0.5979 -1.3357,-1.2139 -1.3357,-1.8605 0,-0.2867 0.0606,-0.5674 0.1949,-0.8541 0.2016,-0.4456 0.6226,-1.0556 1.2506,-1.8426 0.0858,-0.1097 0.6897,-0.7503 1.8245,-1.9277 -0.6225,-0.3719 -1.0556,-0.7017 -1.3117,-0.9944 -0.2567,-0.2928 -0.3845,-0.6221 -0.3845,-0.9945 0,-0.4145 0.1644,-0.9027 0.5063,-1.4641 0.3418,-0.5614 1.1228,-1.3543 2.3488,-2.3794 z m 3.1111,-10.0231 c -0.8781,0 -1.6225,0.3539 -2.2144,1.0551 -0.598,0.7017 -0.8967,1.7814 -0.8967,3.2334 0,1.8852 0.409,3.3433 1.22,4.3803 0.6165,0.7869 1.4034,1.1774 2.3547,1.1774 0.9093,0 1.6536,-0.3353 2.233,-1.0185 0.586,-0.6771 0.8787,-1.7448 0.8787,-3.1968 0,-1.8972 -0.409,-3.3799 -1.2325,-4.4535 -0.61,-0.7869 -1.3909,-1.1774 -2.3428,-1.1774 z m -3.2881,15.9959 c -0.5614,0.6099 -0.9819,1.1713 -1.2691,1.6961 -0.2867,0.5243 -0.4271,1.0065 -0.4271,1.4516 0,0.5674 0.3419,1.0676 1.0376,1.5012 1.1894,0.7378 2.9097,1.1042 5.1612,1.1042 2.1473,0 3.7272,-0.3784 4.7462,-1.1348 1.0185,-0.7569 1.5313,-1.5618 1.5313,-2.4219 0,-0.6166 -0.3053,-1.0556 -0.9153,-1.3178 -0.616,-0.2626 -1.8486,-0.421 -3.6785,-0.4702 -2.6847,-0.0666 -4.7462,-0.2069 -6.1863,-0.4084 z m 18.2655,-25.4156 c 0.5002,0 0.9272,0.177 1.2811,0.5248 0.3479,0.3539 0.5248,0.7809 0.5248,1.2812 0,0.5002 -0.1769,0.9273 -0.5248,1.2871 -0.3539,0.3539 -0.7809,0.5369 -1.2811,0.5369 -0.5003,0 -0.9273,-0.183 -1.2872,-0.5369 -0.3539,-0.3598 -0.5368,-0.7869 -0.5368,-1.2871 0,-0.5003 0.1769,-0.9273 0.5308,-1.2812 0.3479,-0.3478 0.7809,-0.5248 1.2932,-0.5248 z m 1.4826,8.5596 0,13.1588 c 0,1.0251 0.0732,1.7022 0.2256,2.0441 0.1463,0.3413 0.3659,0.5914 0.6591,0.7624 0.2927,0.1649 0.8295,0.2501 1.6045,0.2501 l 0,0.6406 -7.9556,0 0,-0.6406 c 0.7994,0 1.3363,-0.0792 1.6044,-0.2381 0.2747,-0.1524 0.4942,-0.4085 0.6531,-0.7684 0.1644,-0.3539 0.2436,-1.037 0.2436,-2.0501 l 0,-6.314 c 0,-1.7753 -0.0546,-2.9222 -0.1584,-3.447 -0.0852,-0.3844 -0.2195,-0.6465 -0.3964,-0.7929 -0.177,-0.1529 -0.4211,-0.2261 -0.7324,-0.2261 -0.3353,0 -0.7377,0.0918 -1.2139,0.2687 l -0.2502,-0.6466 4.9297,-2.0009 0.7869,0 z" />
</svg>
